<svg width="16" height="16" viewBox="0 0 16 16" fill="none" xmlns="http://www.w3.org/2000/svg">
<path d="M9.8 4.66667V0.306667C10.4013 0.539557 10.9474 0.900874 11.4023 1.36667L13.6669 3.69067C14.1215 4.15659 14.4741 4.7166 14.701 5.33333H10.45C10.2776 5.33333 10.1123 5.2631 9.99038 5.13807C9.86848 5.01305 9.8 4.84348 9.8 4.66667ZM15 6.99V12.6667C14.999 13.5504 14.6562 14.3976 14.047 15.0225C13.4377 15.6474 12.6116 15.9989 11.75 16H5.25C4.38836 15.9989 3.56231 15.6474 2.95304 15.0225C2.34377 14.3976 2.00103 13.5504 2 12.6667V3.33333C2.00103 2.4496 2.34377 1.60237 2.95304 0.97748C3.56231 0.352588 4.38836 0.00105857 5.25 0H8.18475C8.2907 0 8.39535 0.00866667 8.5 0.016V4.66667C8.5 5.1971 8.70545 5.70581 9.07114 6.08088C9.43684 6.45595 9.93283 6.66667 10.45 6.66667H14.9844C14.9916 6.774 15 6.88133 15 6.99ZM11.1 11.3333C11.1 11.1565 11.0315 10.987 10.9096 10.8619C10.7877 10.7369 10.6224 10.6667 10.45 10.6667H9.15V9.33333C9.15 9.15652 9.08152 8.98695 8.95962 8.86193C8.83772 8.73691 8.67239 8.66667 8.5 8.66667C8.32761 8.66667 8.16228 8.73691 8.04038 8.86193C7.91848 8.98695 7.85 9.15652 7.85 9.33333V10.6667H6.55C6.37761 10.6667 6.21228 10.7369 6.09038 10.8619C5.96848 10.987 5.9 11.1565 5.9 11.3333C5.9 11.5101 5.96848 11.6797 6.09038 11.8047C6.21228 11.9298 6.37761 12 6.55 12H7.85V13.3333C7.85 13.5101 7.91848 13.6797 8.04038 13.8047C8.16228 13.9298 8.32761 14 8.5 14C8.67239 14 8.83772 13.9298 8.95962 13.8047C9.08152 13.6797 9.15 13.5101 9.15 13.3333V12H10.45C10.6224 12 10.7877 11.9298 10.9096 11.8047C11.0315 11.6797 11.1 11.5101 11.1 11.3333Z" fill="#677DEC"/>
</svg>
