<svg width="17" height="9" viewBox="0 0 17 9" fill="none" xmlns="http://www.w3.org/2000/svg">
<path d="M8.56259 6.85445C6.54625 4.76614 4.60965 2.78343 2.67305 0.788975C2.49078 0.601262 2.29712 0.390085 2.06929 0.261032C1.61362 -0.0205374 1.05542 0.108516 0.747844 0.53087C0.428875 0.976688 0.406092 1.43424 0.747844 1.86833C0.98707 2.17336 1.27187 2.43146 1.53388 2.71303C3.28821 4.51977 5.03114 6.31478 6.77408 8.10978C7.94743 9.30645 9.098 9.29472 10.2714 8.08632C12.2193 6.08013 14.1673 4.08568 16.1039 2.0795C16.776 1.37558 16.5596 0.378353 15.7052 0.155443C15.2268 0.026391 14.8736 0.272764 14.5433 0.612994C12.6636 2.54878 10.784 4.48457 8.91573 6.42036C8.79042 6.52595 8.69929 6.67847 8.56259 6.85445Z" fill="#677DEC"/>
</svg>
