<svg width="16" height="16" viewBox="0 0 16 16" fill="none" xmlns="http://www.w3.org/2000/svg">
<path d="M5.12116 14.0001C5.37339 14.5943 5.78952 15.1002 6.31844 15.4555C6.84737 15.8107 7.46605 16 8.09851 16C8.73096 16 9.34965 15.8107 9.87857 15.4555C10.4075 15.1002 10.8236 14.5943 11.0759 14.0001H5.12116Z" fill="#677DEC"/>
<path d="M14.86 8.36623L13.7305 4.55099C13.3688 3.21659 12.5824 2.04424 11.4961 1.22008C10.4098 0.395917 9.08598 -0.0328126 7.73474 0.00196014C6.3835 0.0367329 5.08233 0.533015 4.03782 1.41201C2.9933 2.291 2.26531 3.50233 1.96944 4.85365L1.09237 8.54489C0.975795 9.03538 0.969479 9.5466 1.0739 10.04C1.17832 10.5333 1.39074 10.9959 1.69514 11.3929C1.99954 11.7898 2.38796 12.1108 2.8311 12.3314C3.27423 12.5521 3.7605 12.6668 4.2532 12.6668H11.7467C12.2546 12.6668 12.7556 12.5449 13.2093 12.311C13.6631 12.077 14.057 11.7374 14.3597 11.3193C14.6623 10.9013 14.8652 10.4165 14.9521 9.90364C15.0389 9.39084 15.0074 8.86431 14.86 8.36623Z" fill="#677DEC"/>
</svg>
