<svg width="32" height="32" viewBox="0 0 32 32" fill="none" xmlns="http://www.w3.org/2000/svg">
<rect width="32" height="32" rx="6" fill="white" fill-opacity="0.1"/>
<path d="M13.1212 22.0001C13.3734 22.5943 13.7895 23.1002 14.3184 23.4555C14.8474 23.8107 15.4661 24 16.0985 24C16.731 24 17.3496 23.8107 17.8786 23.4555C18.4075 23.1002 18.8236 22.5943 19.0759 22.0001H13.1212Z" fill="white"/>
<path d="M22.86 16.3662L21.7305 12.551C21.3688 11.2166 20.5824 10.0442 19.4961 9.22008C18.4098 8.39592 17.086 7.96719 15.7347 8.00196C14.3835 8.03673 13.0823 8.53302 12.0378 9.41201C10.9933 10.291 10.2653 11.5023 9.96944 12.8537L9.09237 16.5449C8.97579 17.0354 8.96948 17.5466 9.0739 18.04C9.17832 18.5333 9.39074 18.9959 9.69514 19.3929C9.99954 19.7898 10.388 20.1108 10.8311 20.3314C11.2742 20.5521 11.7605 20.6668 12.2532 20.6668H19.7467C20.2546 20.6668 20.7556 20.5449 21.2093 20.311C21.6631 20.077 22.057 19.7374 22.3597 19.3193C22.6623 18.9013 22.8652 18.4165 22.9521 17.9036C23.0389 17.3908 23.0074 16.8643 22.86 16.3662Z" fill="white"/>
</svg>
