<svg width="14" height="14" viewBox="0 0 14 14" fill="none" xmlns="http://www.w3.org/2000/svg">
<path d="M0 11.083C0.00092625 11.8563 0.308514 12.5976 0.855295 13.1444C1.40208 13.6912 2.1434 13.9987 2.91667 13.9997H11.0833C11.8566 13.9987 12.5979 13.6912 13.1447 13.1444C13.6915 12.5976 13.9991 11.8563 14 11.083V5.83301H0V11.083ZM9.91667 8.45801C10.0897 8.45801 10.2589 8.50933 10.4028 8.60547C10.5467 8.70162 10.6588 8.83827 10.7251 8.99816C10.7913 9.15805 10.8086 9.33398 10.7749 9.50371C10.7411 9.67345 10.6578 9.82936 10.5354 9.95173C10.413 10.0741 10.2571 10.1574 10.0874 10.1912C9.91764 10.225 9.7417 10.2076 9.58182 10.1414C9.42193 10.0752 9.28528 9.96302 9.18913 9.81913C9.09298 9.67524 9.04167 9.50607 9.04167 9.33301C9.04167 9.10094 9.13385 8.87838 9.29795 8.71429C9.46204 8.5502 9.6846 8.45801 9.91667 8.45801ZM7 8.45801C7.17306 8.45801 7.34223 8.50933 7.48612 8.60547C7.63002 8.70162 7.74217 8.83827 7.80839 8.99816C7.87462 9.15805 7.89195 9.33398 7.85819 9.50371C7.82442 9.67345 7.74109 9.82936 7.61872 9.95173C7.49635 10.0741 7.34044 10.1574 7.1707 10.1912C7.00097 10.225 6.82504 10.2076 6.66515 10.1414C6.50527 10.0752 6.36861 9.96302 6.27246 9.81913C6.17632 9.67524 6.125 9.50607 6.125 9.33301C6.125 9.10094 6.21719 8.87838 6.38128 8.71429C6.54538 8.5502 6.76794 8.45801 7 8.45801ZM4.08333 8.45801C4.25639 8.45801 4.42556 8.50933 4.56946 8.60547C4.71335 8.70162 4.8255 8.83827 4.89173 8.99816C4.95795 9.15805 4.97528 9.33398 4.94152 9.50371C4.90776 9.67345 4.82442 9.82936 4.70205 9.95173C4.57968 10.0741 4.42377 10.1574 4.25404 10.1912C4.0843 10.225 3.90837 10.2076 3.74849 10.1414C3.5886 10.0752 3.45194 9.96302 3.3558 9.81913C3.25965 9.67524 3.20833 9.50607 3.20833 9.33301C3.20833 9.10094 3.30052 8.87838 3.46461 8.71429C3.62871 8.5502 3.85127 8.45801 4.08333 8.45801Z" fill="#8D95A3"/>
<path d="M11.0833 1.16667H10.5V0.583333C10.5 0.428624 10.4385 0.280251 10.3291 0.170854C10.2197 0.0614582 10.0714 0 9.91667 0C9.76196 0 9.61358 0.0614582 9.50419 0.170854C9.39479 0.280251 9.33333 0.428624 9.33333 0.583333V1.16667H4.66667V0.583333C4.66667 0.428624 4.60521 0.280251 4.49581 0.170854C4.38642 0.0614582 4.23804 0 4.08333 0C3.92862 0 3.78025 0.0614582 3.67085 0.170854C3.56146 0.280251 3.5 0.428624 3.5 0.583333V1.16667H2.91667C2.1434 1.16759 1.40208 1.47518 0.855295 2.02196C0.308514 2.56874 0.00092625 3.31007 0 4.08333L0 4.66667H14V4.08333C13.9991 3.31007 13.6915 2.56874 13.1447 2.02196C12.5979 1.47518 11.8566 1.16759 11.0833 1.16667Z" fill="#8D95A3"/>
</svg>
