<svg width="23" height="24" viewBox="0 0 23 24" fill="none" xmlns="http://www.w3.org/2000/svg">
<path d="M19.6354 3.97358C15.1483 -0.512677 7.85098 -0.512677 3.36388 3.97358C-1.12129 8.45983 -1.12129 15.7592 3.36388 20.2454C5.60743 22.4881 8.55375 23.6089 11.5001 23.6089C14.4465 23.6089 17.3918 22.488 19.6354 20.2454C24.1215 15.7592 24.1215 8.45983 19.6354 3.97358ZM16.2451 15.4993C16.62 15.8742 16.62 16.4802 16.2451 16.8551C16.0581 17.042 15.8127 17.136 15.5672 17.136C15.3218 17.136 15.0763 17.042 14.8894 16.8551L11.5001 13.4647L8.11174 16.8541C7.92383 17.0411 7.67835 17.135 7.43387 17.135C7.18843 17.135 6.94295 17.0411 6.75599 16.8541C6.38112 16.4792 6.38112 15.8723 6.75599 15.4984L10.1443 12.109L6.75505 8.71965C6.38018 8.34477 6.38018 7.73785 6.75505 7.36392C7.12897 6.98904 7.73588 6.98904 8.11075 7.36392L11.5 10.7533L14.8893 7.36392C15.2642 6.98904 15.8702 6.98904 16.245 7.36392C16.6199 7.73785 16.6199 8.34477 16.245 8.71965L12.8557 12.109L16.2451 15.4993Z" fill="#1C2B48"/>
</svg>
