<svg width="14" height="14" viewBox="0 0 14 14" fill="none" xmlns="http://www.w3.org/2000/svg">
<path d="M11.4786 2.40769C8.99117 -0.0792558 4.94592 -0.0792558 2.45851 2.40769C-0.0278361 4.89463 -0.0278361 8.94101 2.45851 11.4279C3.70222 12.6712 5.33551 13.2925 6.96882 13.2925C8.60213 13.2925 10.2349 12.6711 11.4786 11.4279C13.9655 8.94103 13.9655 4.89463 11.4786 2.40769ZM9.59919 8.79697C9.807 9.00479 9.807 9.34071 9.59919 9.54852C9.49555 9.65217 9.35949 9.70426 9.22341 9.70426C9.08736 9.70426 8.95128 9.65217 8.84764 9.54852L6.96879 7.66909L5.09048 9.54797C4.98631 9.65162 4.85023 9.70371 4.7147 9.70371C4.57864 9.70371 4.44256 9.65162 4.33892 9.54797C4.13111 9.34016 4.13111 9.00372 4.33892 8.79643L6.21724 6.91755L4.3384 5.03866C4.13059 4.83085 4.13059 4.49441 4.3384 4.28712C4.54568 4.07931 4.88212 4.07931 5.08993 4.28712L6.96877 6.166L8.84761 4.28712C9.05542 4.07931 9.39133 4.07931 9.59914 4.28712C9.80695 4.49441 9.80695 4.83085 9.59914 5.03866L7.7203 6.91755L9.59919 8.79697Z" fill="#1C2B48"/>
</svg>
