<svg width="14" height="13" viewBox="0 0 14 13" fill="none" xmlns="http://www.w3.org/2000/svg">
<path d="M6.83967 8.88012C6.85219 8.89594 6.86818 8.90875 6.88645 8.91755C6.90471 8.92635 6.92476 8.93093 6.94507 8.93093C6.96539 8.93093 6.98544 8.92635 7.0037 8.91755C7.02196 8.90875 7.03796 8.89594 7.05048 8.88012L8.92441 6.53451C8.99301 6.44844 8.9311 6.32098 8.819 6.32098H7.5792V0.71934C7.5792 0.646506 7.51896 0.586914 7.44535 0.586914H6.44146C6.36784 0.586914 6.3076 0.646506 6.3076 0.71934V6.31932H5.07115C4.95905 6.31932 4.89714 6.44678 4.96574 6.53286L6.83967 8.88012ZM13.0688 8.30075H12.0649C11.9913 8.30075 11.9311 8.36034 11.9311 8.43318V10.9824H1.95909V8.43318C1.95909 8.36034 1.89886 8.30075 1.82524 8.30075H0.821352C0.747733 8.30075 0.6875 8.36034 0.6875 8.43318V11.7107C0.6875 12.0037 0.92676 12.2404 1.22291 12.2404H12.6672C12.9634 12.2404 13.2026 12.0037 13.2026 11.7107V8.43318C13.2026 8.36034 13.1424 8.30075 13.0688 8.30075Z" fill="black" fill-opacity="0.45"/>
</svg>
