<svg width="14" height="15" viewBox="0 0 14 15" fill="none" xmlns="http://www.w3.org/2000/svg">
<path d="M8.02083 6.88261L6.00425 8.8992C5.67817 9.22528 5.22725 9.41195 4.767 9.41195H4.66667V9.31161C4.66667 8.85136 4.85333 8.40045 5.17942 8.07436L7.196 6.05778L8.02083 6.88261ZM8.62925 4.62453L8.02083 5.23295L8.84567 6.05778L9.45408 5.44936C9.68158 5.22186 9.68158 4.85203 9.45408 4.62453C9.22658 4.39703 8.85733 4.39645 8.62925 4.62453ZM14 7.07861C14 10.9385 10.8599 14.0786 7 14.0786C3.14008 14.0786 0 10.9385 0 7.07861C0 3.2187 3.14008 0.0786133 7 0.0786133C10.8599 0.0786133 14 3.2187 14 7.07861ZM10.2789 3.7997C9.59642 3.1172 8.48692 3.1172 7.80442 3.7997L4.35458 7.24953C3.80392 7.8002 3.5 8.53286 3.5 9.31161V9.99528C3.5 10.3179 3.76075 10.5786 4.08333 10.5786H4.767C5.54575 10.5786 6.27842 10.2747 6.82908 9.72403L10.2789 6.2742C10.9614 5.5917 10.9614 4.4822 10.2789 3.7997Z" fill="#677DEC"/>
</svg>
