<svg width="14" height="14" viewBox="0 0 14 14" fill="none" xmlns="http://www.w3.org/2000/svg">
<g clip-path="url(#clip0_3011_4153)">
<path d="M13.9921 2.806C13.9743 2.69263 13.7936 1.67424 13.0605 0.930618C12.3242 0.205573 11.3086 0.0262333 11.1953 0.0082993C11.0445 -0.0166802 10.8905 0.0153448 10.7613 0.0960476C10.7161 0.12423 10.0524 0.542475 8.74217 1.65758C9.41607 1.89713 10.2872 2.31281 10.9936 3.0084C11.7025 3.70654 12.1263 4.56545 12.3694 5.23157C13.4639 3.94417 13.8756 3.29214 13.903 3.2473C13.9845 3.116 14.0163 2.95908 13.9921 2.806Z" fill="#D03135"/>
<path d="M7.605 2.65932C6.92219 3.27933 6.12739 4.03255 5.2174 4.94206C1.35918 8.79787 0.34737 10.3395 0.306007 10.403C0.248099 10.4926 0.213099 10.5957 0.204827 10.7021L0.00182934 13.3095C-0.0121705 13.4966 0.0546469 13.6797 0.186372 13.8123C0.306007 13.9327 0.468278 14 0.636912 14C0.652821 14 0.669366 14 0.685911 13.9981L3.2956 13.7957C3.4006 13.7874 3.50178 13.7534 3.59024 13.6964C3.65387 13.6554 5.19576 12.6441 9.05335 8.7889C9.9837 7.85889 10.7511 7.0493 11.3792 6.35692C11.2831 5.94124 10.9478 4.75504 10.1033 3.92431C9.2468 3.08077 8.01482 2.75028 7.605 2.65932Z" fill="#D03135"/>
</g>
<defs>
<clipPath id="clip0_3011_4153">
<rect width="14" height="14" fill="white"/>
</clipPath>
</defs>
</svg>
