<svg width="16" height="16" viewBox="0 0 16 16" fill="none" xmlns="http://www.w3.org/2000/svg">
<path d="M10.032 4.83012C10.8393 4.92968 12.5548 5.08856 14.2798 4.92627C14.2395 4.83762 10.2686 1.33276 10.2686 1.33276C10.133 1.21139 9.93045 1.1732 9.9175 1.17047C9.83364 2.98632 9.94682 4.21643 10.0314 4.83012H10.032Z" fill="#D03135"/>
<path d="M10.7977 14.7876C10.6416 14.5299 10.5393 14.2489 10.4957 13.9591C10.4957 13.9591 10.2216 13.955 10.1411 13.9469C8.86477 13.9032 7.83932 12.8504 7.83932 11.5616C7.83932 10.2456 8.90841 9.17506 10.223 9.17506H10.508C10.5448 8.9139 10.6245 8.65479 10.752 8.40795C11.1652 7.61219 11.9766 7.11919 12.8691 7.11919C13.2495 7.11919 13.6293 7.21261 13.9675 7.38854C14.1761 7.49696 14.3718 7.61015 14.5559 7.72607C14.5402 7.21739 14.5184 6.57233 14.4898 6.27707C13.8761 6.33844 13.2673 6.36163 12.6952 6.36163C10.8734 6.36163 9.41636 6.12433 9.33455 6.11069C9.06386 6.06569 8.84568 5.86181 8.78364 5.59383C8.76795 5.527 8.4175 3.98323 8.56477 1.01569C8.34454 1.00478 8.11477 1 7.87341 1C4.8925 0.998639 2.35955 1.52641 2.25318 1.54892C2.00295 1.6021 1.80386 1.7903 1.73636 2.03851C1.70636 2.15033 1 4.94468 1 8.49932C1 12.084 1.70705 14.5878 1.73705 14.6983C1.79841 14.9219 1.96818 15.0992 2.18841 15.1688C2.29614 15.2029 4.85159 16 7.87273 16C9.29023 16 10.6068 15.8241 11.6159 15.6338C11.2941 15.4306 11.0145 15.1449 10.797 14.7876H10.7977Z" fill="#D03135"/>
<path d="M15.9339 11.1962C15.8732 11.0373 15.2861 9.61351 13.3389 8.59751C12.8398 8.3384 12.2241 8.53137 11.963 9.03323C11.7032 9.53441 11.8982 10.1522 12.3973 10.4127C12.4764 10.4536 12.5514 10.4959 12.6236 10.5381H10.2223C9.65909 10.5381 9.20227 10.9957 9.20227 11.561C9.20227 12.1262 9.65909 12.5838 10.2223 12.5838H12.6059C12.5391 12.6226 12.4695 12.6608 12.3966 12.699C11.8975 12.9595 11.6698 13.5964 11.9623 14.0785C12.4423 14.8688 13.1868 14.5926 13.3382 14.5142C15.2841 13.4989 15.8718 12.0867 15.9318 11.9285C16.0225 11.6926 16.0225 11.4314 15.9332 11.1955L15.9339 11.1962Z" fill="#D03135"/>
</svg>
