<svg width="15" height="15" viewBox="0 0 15 15" fill="none" xmlns="http://www.w3.org/2000/svg">
<path d="M9.03205 3.83012C9.83932 3.92968 11.5548 4.08856 13.2798 3.92627C13.2395 3.83762 9.26864 0.33276 9.26864 0.33276C9.13295 0.211385 8.93045 0.1732 8.9175 0.170473C8.83364 1.98632 8.94682 3.21643 9.03136 3.83012H9.03205Z" fill="#677DEC"/>
<path d="M9.79773 13.7876C9.64159 13.5299 9.53932 13.2489 9.49568 12.9591C9.49568 12.9591 9.22159 12.955 9.14114 12.9469C7.86477 12.9032 6.83932 11.8504 6.83932 10.5616C6.83932 9.24561 7.90841 8.17506 9.22295 8.17506H9.50795C9.54477 7.9139 9.62455 7.65479 9.75204 7.40795C10.1652 6.61219 10.9766 6.11919 11.8691 6.11919C12.2495 6.11919 12.6293 6.21261 12.9675 6.38854C13.1761 6.49696 13.3718 6.61015 13.5559 6.72607C13.5402 6.21739 13.5184 5.57233 13.4898 5.27707C12.8761 5.33844 12.2673 5.36163 11.6952 5.36163C9.87341 5.36163 8.41636 5.12433 8.33455 5.11069C8.06386 5.06569 7.84568 4.86181 7.78364 4.59383C7.76795 4.527 7.4175 2.98323 7.56477 0.0156859C7.34454 0.0047758 7.11477 2.63835e-06 6.87341 2.63835e-06C3.8925 -0.00136112 1.35955 0.526414 1.25318 0.548916C1.00295 0.602103 0.803864 0.790302 0.736364 1.03851C0.706363 1.15033 0 3.94468 0 7.49932C0 11.084 0.707045 13.5878 0.737045 13.6983C0.798409 13.9219 0.968182 14.0992 1.18841 14.1688C1.29614 14.2029 3.85159 15 6.87273 15C8.29023 15 9.60682 14.8241 10.6159 14.6338C10.2941 14.4306 10.0145 14.1449 9.79704 13.7876H9.79773Z" fill="#677DEC"/>
<path d="M14.9339 10.1962C14.8732 10.0373 14.2861 8.61351 12.3389 7.59751C11.8398 7.3384 11.2241 7.53137 10.963 8.03323C10.7032 8.53441 10.8982 9.1522 11.3973 9.41267C11.4764 9.45359 11.5514 9.49586 11.6236 9.53814H9.22227C8.65909 9.53814 8.20227 9.99568 8.20227 10.561C8.20227 11.1262 8.65909 11.5838 9.22227 11.5838H11.6059C11.5391 11.6226 11.4695 11.6608 11.3966 11.699C10.8975 11.9595 10.6698 12.5964 10.9623 13.0785C11.4423 13.8688 12.1868 13.5926 12.3382 13.5142C14.2841 12.4989 14.8718 11.0867 14.9318 10.9285C15.0225 10.6926 15.0225 10.4314 14.9332 10.1955L14.9339 10.1962Z" fill="#677DEC"/>
</svg>
