<svg width="16" height="16" viewBox="0 0 16 16" fill="none" xmlns="http://www.w3.org/2000/svg">
<path d="M15.6373 6.97238L15.6333 6.95686L13.4097 1.42588C13.3106 1.11353 13.0153 0.898193 12.6804 0.898193H3.66703C3.33012 0.898193 3.03086 1.11742 2.93574 1.43364L0.856795 6.90836L0.850849 6.92194L0.846885 6.93746C0.821122 7.03252 0.813194 7.12952 0.827067 7.22458C0.825085 7.25562 0.823104 7.28666 0.823104 7.3177V14.4162C0.823628 14.7289 0.950746 15.0286 1.17661 15.2497C1.40246 15.4708 1.70864 15.5952 2.02806 15.5957H14.4581C15.122 15.5957 15.6631 15.0661 15.665 14.4162V7.3177C15.665 7.29248 15.665 7.26726 15.6631 7.24592C15.671 7.15086 15.6631 7.05968 15.6373 6.97238ZM9.77503 6.13817L9.76909 6.44275C9.75323 7.31382 9.13887 7.8997 8.2411 7.8997C7.80311 7.8997 7.42657 7.76196 7.15505 7.50006C6.88354 7.23816 6.73491 6.87344 6.72698 6.44275L6.72103 6.13817H2.64242L4.21798 2.38812H12.1295L13.7486 6.13817H9.77503ZM2.34317 7.6281H5.46059C5.94217 8.73585 6.96678 9.38963 8.24308 9.38963C8.91096 9.38963 9.53127 9.20727 10.0327 8.86195C10.4726 8.55931 10.8155 8.13639 11.0375 7.6281H14.139V14.1058H2.34317V7.6281Z" fill="#677DEC"/>
</svg>
