<svg width="10" height="11" viewBox="0 0 10 11" fill="none" xmlns="http://www.w3.org/2000/svg">
<g clip-path="url(#clip0_346_3323)">
<path d="M5 10.5C5.98891 10.5 6.95561 10.2068 7.77785 9.65735C8.6001 9.10794 9.24096 8.32705 9.6194 7.41342C9.99784 6.49979 10.0969 5.49446 9.90393 4.52455C9.711 3.55465 9.2348 2.66373 8.53553 1.96447C7.83627 1.26521 6.94536 0.789002 5.97545 0.596076C5.00555 0.40315 4.00021 0.502166 3.08658 0.880605C2.17295 1.25904 1.39206 1.89991 0.842652 2.72215C0.293245 3.5444 0 4.5111 0 5.5C0.00143378 6.82564 0.528678 8.09658 1.46605 9.03395C2.40342 9.97132 3.67436 10.4986 5 10.5ZM5 2.58334C5.12361 2.58334 5.24445 2.61999 5.34723 2.68867C5.45001 2.75734 5.53012 2.85495 5.57743 2.96916C5.62473 3.08336 5.63711 3.20903 5.61299 3.33027C5.58888 3.4515 5.52935 3.56287 5.44194 3.65028C5.35453 3.73768 5.24317 3.79721 5.12193 3.82133C5.00069 3.84544 4.87503 3.83307 4.76082 3.78576C4.64662 3.73846 4.54901 3.65835 4.48033 3.55557C4.41166 3.45279 4.375 3.33195 4.375 3.20834C4.375 3.04258 4.44085 2.8836 4.55806 2.76639C4.67527 2.64918 4.83424 2.58334 5 2.58334ZM4.58333 4.66667H5C5.22101 4.66667 5.43298 4.75447 5.58926 4.91075C5.74554 5.06703 5.83333 5.27899 5.83333 5.5V8C5.83333 8.11051 5.78943 8.21649 5.71129 8.29463C5.63315 8.37277 5.52717 8.41667 5.41667 8.41667C5.30616 8.41667 5.20018 8.37277 5.12204 8.29463C5.0439 8.21649 5 8.11051 5 8V5.5H4.58333C4.47283 5.5 4.36685 5.4561 4.28871 5.37796C4.21057 5.29982 4.16667 5.19384 4.16667 5.08334C4.16667 4.97283 4.21057 4.86685 4.28871 4.78871C4.36685 4.71057 4.47283 4.66667 4.58333 4.66667Z" fill="black"/>
</g>
<defs>
<clipPath id="clip0_346_3323">
<rect width="10" height="10" fill="white" transform="translate(0 0.5)"/>
</clipPath>
</defs>
</svg>
