<svg width="16" height="16" viewBox="0 0 16 16" fill="none" xmlns="http://www.w3.org/2000/svg">
<g clip-path="url(#clip0_3001_3621)">
<path d="M14.9921 3.806C14.9743 3.69263 14.7936 2.67424 14.0605 1.93062C13.3242 1.20557 12.3086 1.02623 12.1953 1.0083C12.0445 0.98332 11.8905 1.01534 11.7613 1.09605C11.7161 1.12423 11.0524 1.54248 9.74217 2.65758C10.4161 2.89713 11.2872 3.31281 11.9936 4.0084C12.7025 4.70654 13.1263 5.56545 13.3694 6.23157C14.4639 4.94417 14.8756 4.29214 14.903 4.2473C14.9845 4.116 15.0163 3.95908 14.9921 3.806Z" fill="#677DEC"/>
<path d="M8.605 3.65932C7.92219 4.27933 7.12739 5.03255 6.2174 5.94206C2.35918 9.79787 1.34737 11.3395 1.30601 11.403C1.2481 11.4926 1.2131 11.5957 1.20483 11.7021L1.00183 14.3095C0.98783 14.4966 1.05465 14.6797 1.18637 14.8123C1.30601 14.9327 1.46828 15 1.63691 15C1.65282 15 1.66937 15 1.68591 14.9981L4.2956 14.7957C4.4006 14.7874 4.50178 14.7534 4.59024 14.6964C4.65387 14.6554 6.19576 13.6441 10.0533 9.7889C10.9837 8.85889 11.7511 8.0493 12.3792 7.35692C12.2831 6.94124 11.9478 5.75504 11.1033 4.92431C10.2468 4.08077 9.01482 3.75028 8.605 3.65932Z" fill="#677DEC"/>
</g>
<defs>
<clipPath id="clip0_3001_3621">
<rect width="14" height="14" fill="white" transform="translate(1 1)"/>
</clipPath>
</defs>
</svg>
