<svg width="15" height="17" viewBox="0 0 15 17" fill="none" xmlns="http://www.w3.org/2000/svg">
<path d="M10.8026 7.62469C10.8026 7.27601 10.52 6.99337 10.1713 6.99337H3.66872C3.32004 6.99337 3.0374 7.27601 3.0374 7.62469C3.0374 7.97337 3.32004 8.25601 3.66872 8.25601H10.1713C10.52 8.25601 10.8026 7.97337 10.8026 7.62469Z" fill="#152B48"/>
<path d="M3.66872 9.51865C3.32004 9.51865 3.0374 9.80129 3.0374 10.15C3.0374 10.4986 3.32004 10.7813 3.66872 10.7813H7.61797C7.96665 10.7813 8.24929 10.4986 8.24929 10.15C8.24929 9.80129 7.96665 9.51865 7.61797 9.51865H3.66872Z" fill="#152B48"/>
<path d="M5.15232 15.5793H3.0409C2.34468 15.5793 1.77826 15.0129 1.77826 14.3167V3.20545C1.77826 2.50923 2.34468 1.94281 3.0409 1.94281H10.8026C11.4988 1.94281 12.0653 2.50923 12.0653 3.20545V7.08807C12.0653 7.43675 12.3479 7.71939 12.6966 7.71939C13.0453 7.71939 13.3279 7.43675 13.3279 7.08807V3.20545C13.3279 1.81302 12.1951 0.680176 10.8026 0.680176H3.0409C1.64846 0.680176 0.515625 1.81302 0.515625 3.20545V14.3167C0.515625 15.7091 1.64846 16.842 3.0409 16.842H5.15232C5.501 16.842 5.78364 16.5593 5.78364 16.2106C5.78364 15.862 5.501 15.5793 5.15232 15.5793Z" fill="#152B48"/>
<path d="M14.4461 9.8208C13.7077 9.08234 12.5062 9.08231 11.7682 9.82029L8.30213 13.2787C8.22852 13.3521 8.17423 13.4426 8.14398 13.5421L7.38915 16.0271C7.32223 16.2474 7.38053 16.4867 7.54133 16.6515C7.66178 16.7749 7.82542 16.842 7.99326 16.842C8.04941 16.842 8.10611 16.8344 8.16176 16.819L10.7099 16.1132C10.8148 16.0841 10.9104 16.0285 10.9874 15.9516L14.4462 12.4993C15.1846 11.7608 15.1846 10.5593 14.4461 9.8208ZM10.2129 14.9407L8.93092 15.2958L9.30609 14.0606L11.6448 11.7271L12.5378 12.6201L10.2129 14.9407ZM13.5538 11.6061L13.4315 11.7282L12.5386 10.8353L12.6605 10.7137C12.9067 10.4675 13.3072 10.4675 13.5534 10.7137C13.7995 10.9598 13.7995 11.3603 13.5538 11.6061Z" fill="#152B48"/>
<path d="M10.1713 4.46809H3.66872C3.32004 4.46809 3.0374 4.75073 3.0374 5.09941C3.0374 5.44809 3.32004 5.73073 3.66872 5.73073H10.1713C10.52 5.73073 10.8026 5.44809 10.8026 5.09941C10.8026 4.75073 10.52 4.46809 10.1713 4.46809Z" fill="#152B48"/>
</svg>
