<svg width="24" height="23" viewBox="0 0 24 23" fill="none" xmlns="http://www.w3.org/2000/svg">
<path d="M11.8017 0.0309048C5.48132 0.0315032 0.341446 5.17137 0.340848 11.4918C0.341612 17.8108 5.48292 22.9521 11.802 22.9529C14.9618 22.9523 17.8265 21.6665 19.9018 19.5912C21.9771 17.5159 23.2622 14.6519 23.2628 11.492C23.2628 5.17231 18.1215 0.0309715 11.8017 0.0309048ZM17.532 10.5371C18.0601 10.5371 18.4869 10.9639 18.4869 11.492C18.4869 11.7554 18.3802 11.9944 18.2073 12.1673C18.0345 12.3402 17.7954 12.4469 17.532 12.4469L12.7567 12.4462L12.7574 17.22C12.7568 17.4841 12.6501 17.7232 12.4779 17.8954C12.305 18.0683 12.0659 18.175 11.8025 18.175C11.2744 18.175 10.8469 17.7475 10.8476 17.2201L10.8469 12.4462L6.07234 12.4461C5.54425 12.4461 5.11677 12.0186 5.11742 11.4912C5.11675 10.9638 5.54423 10.5363 6.07232 10.5363L10.8469 10.5364L10.8468 5.76181C10.8468 5.23372 11.2736 4.80691 11.8017 4.80691C12.3291 4.80625 12.7566 5.23374 12.7566 5.76182L12.7567 10.5364L17.532 10.5371Z" fill="#677DEC"/>
</svg>
