<svg width="14" height="13" viewBox="0 0 14 13" fill="none" xmlns="http://www.w3.org/2000/svg">
<path d="M11.9568 5.19929H11.3106C11.2395 5.19929 11.1814 5.25683 11.1814 5.32716V5.96652C11.1814 6.03685 11.2395 6.09439 11.3106 6.09439H11.9568C12.0279 6.09439 12.0861 6.03685 12.0861 5.96652V5.32716C12.0861 5.25683 12.0279 5.19929 11.9568 5.19929ZM12.4738 3.53697H10.5351V0.148379C10.5351 0.0780498 10.477 0.0205078 10.4059 0.0205078H3.55575C3.48466 0.0205078 3.4265 0.0780498 3.4265 0.148379V3.53697H1.48779C0.773695 3.53697 0.195312 4.10919 0.195312 4.81568V10.0584C0.195312 10.3413 0.426343 10.5699 0.712303 10.5699H3.4265V12.6798C3.4265 12.7501 3.48466 12.8076 3.55575 12.8076H10.4059C10.477 12.8076 10.5351 12.7501 10.5351 12.6798V10.5699H13.2493C13.5353 10.5699 13.7663 10.3413 13.7663 10.0584V4.81568C13.7663 4.10919 13.1879 3.53697 12.4738 3.53697ZM4.52511 1.10741H9.43651V3.53697H4.52511V1.10741ZM9.43651 11.7207H4.52511V7.30917H9.43651V11.7207ZM12.6677 9.48298H10.5351V6.22226H3.4265V9.48298H1.29392V4.81568C1.29392 4.71018 1.38116 4.62387 1.48779 4.62387H12.4738C12.5805 4.62387 12.6677 4.71018 12.6677 4.81568V9.48298Z" fill="black" fill-opacity="0.45"/>
</svg>
