<svg width="18" height="18" viewBox="0 0 18 18" fill="none" xmlns="http://www.w3.org/2000/svg">
<g clip-path="url(#clip0_3026_4622)">
<path d="M17.2501 14.437L15.1983 14.437C14.7933 12.947 13.2572 12.0674 11.7672 12.4723C10.8102 12.7324 10.0627 13.48 9.80259 14.437L0.751742 14.437C0.337572 14.437 0.00182738 14.7727 0.00182736 15.1869C0.00182734 15.601 0.337572 15.9368 0.751741 15.9368L9.80259 15.9368C10.2075 17.4268 11.7437 18.3064 13.2337 17.9014C14.1906 17.6413 14.9382 16.8938 15.1983 15.9368L17.2501 15.9368C17.6643 15.9368 18 15.6011 18 15.1869C18 14.7727 17.6643 14.437 17.2501 14.437Z" fill="#D03135"/>
<path d="M0.751741 9.75053L2.80354 9.75053C3.20769 11.2403 4.74298 12.1204 6.23276 11.7163C7.19049 11.4565 7.93869 10.7083 8.1985 9.75053L17.2501 9.75053C17.6643 9.75053 18 9.41479 18 9.00062C18 8.58645 17.6643 8.2507 17.2501 8.2507L8.1985 8.2507C7.79435 6.76093 6.25905 5.88084 4.76928 6.28496C3.81154 6.54477 3.06335 7.29293 2.80354 8.2507L0.751742 8.2507C0.337572 8.2507 0.00182738 8.58645 0.00182736 9.00062C0.00182734 9.41479 0.337572 9.75053 0.751741 9.75053Z" fill="#D03135"/>
<path d="M0.751741 3.56377L9.80259 3.56377C10.2075 5.05375 11.7437 5.93334 13.2337 5.52839C14.1906 5.26829 14.9382 4.52073 15.1983 3.56377L17.2501 3.56377C17.6643 3.56377 18 3.22802 18 2.81385C18 2.39968 17.6643 2.06394 17.2501 2.06394L15.1983 2.06394C14.7933 0.573956 13.2572 -0.305636 11.7672 0.099324C10.8102 0.359419 10.0627 1.10698 9.80259 2.06394L0.751742 2.06394C0.337572 2.06394 0.00182738 2.39968 0.00182736 2.81385C0.00182734 3.22802 0.337572 3.56377 0.751741 3.56377Z" fill="#D03135"/>
</g>
<defs>
<clipPath id="clip0_3026_4622">
<rect width="18" height="18" fill="white" transform="matrix(0 1 -1 0 18 0)"/>
</clipPath>
</defs>
</svg>
