<svg width="15" height="18" viewBox="0 0 15 18" fill="none" xmlns="http://www.w3.org/2000/svg">
<path d="M13.5422 3.3H11.3722C11.0373 1.67151 9.60479 0.5021 7.9422 0.5H6.54218C4.8796 0.5021 3.44707 1.67151 3.11218 3.3H0.94218C0.555581 3.3 0.242188 3.6134 0.242188 3.99999C0.242188 4.38659 0.555581 4.70002 0.94218 4.70002H1.64217V13.8001C1.6445 15.7321 3.21016 17.2978 5.1422 17.3001H9.34222C11.2743 17.2978 12.8399 15.7321 12.8422 13.8001V4.70002H13.5422C13.9288 4.70002 14.2422 4.38663 14.2422 4.00003C14.2422 3.61343 13.9288 3.3 13.5422 3.3ZM6.54222 12.4001C6.54222 12.7867 6.22882 13.1001 5.84223 13.1001C5.45559 13.1001 5.1422 12.7867 5.1422 12.4001V8.20005C5.1422 7.81345 5.45559 7.50006 5.84219 7.50006C6.22879 7.50006 6.54218 7.81345 6.54218 8.20005V12.4001H6.54222ZM9.34222 12.4001C9.34222 12.7867 9.02883 13.1001 8.64223 13.1001C8.25563 13.1001 7.94224 12.7867 7.94224 12.4001V8.20005C7.94224 7.81345 8.25563 7.50006 8.64223 7.50006C9.02883 7.50006 9.34222 7.81345 9.34222 8.20005V12.4001ZM4.56191 3.3C4.85965 2.46161 5.65254 1.90107 6.54222 1.89998H7.94224C8.83192 1.90107 9.6248 2.46161 9.92255 3.3H4.56191Z" fill="#677DEC"/>
</svg>
