<svg width="12" height="11" viewBox="0 0 12 11" fill="none" xmlns="http://www.w3.org/2000/svg">
<path d="M4.06627 2.4486H5.21321V7.69905C5.21321 7.76734 5.26908 7.82321 5.33737 7.82321H6.26857C6.33686 7.82321 6.39273 7.76734 6.39273 7.69905V2.4486H7.54277C7.64676 2.4486 7.70418 2.3291 7.64055 2.24839L5.9023 0.0476388C5.89068 0.0327988 5.87584 0.0207971 5.8589 0.0125433C5.84196 0.00428948 5.82337 0 5.80452 0C5.78568 0 5.76708 0.00428948 5.75014 0.0125433C5.7332 0.0207971 5.71836 0.0327988 5.70675 0.0476388L3.96849 2.24684C3.90486 2.3291 3.96228 2.4486 4.06627 2.4486ZM11.4849 7.23345H10.5537C10.4854 7.23345 10.4295 7.28932 10.4295 7.35761V9.74771H1.17953V7.35761C1.17953 7.28932 1.12366 7.23345 1.05537 7.23345H0.124161C0.0558724 7.23345 0 7.28932 0 7.35761V10.4306C0 10.7053 0.221938 10.9272 0.496644 10.9272H11.1124C11.3871 10.9272 11.609 10.7053 11.609 10.4306V7.35761C11.609 7.28932 11.5532 7.23345 11.4849 7.23345Z" fill="white"/>
</svg>
