<svg width="13" height="12" viewBox="0 0 13 12" fill="none" xmlns="http://www.w3.org/2000/svg">
<path d="M4.47252 2.65368H5.61946V7.90413C5.61946 7.97242 5.67533 8.02829 5.74362 8.02829H6.67482C6.74311 8.02829 6.79898 7.97242 6.79898 7.90413V2.65368H7.94902C8.05301 2.65368 8.11043 2.53417 8.0468 2.45347L6.30855 0.252717C6.29693 0.237877 6.28209 0.225875 6.26515 0.217621C6.24821 0.209368 6.22962 0.205078 6.21077 0.205078C6.19193 0.205078 6.17333 0.209368 6.15639 0.217621C6.13945 0.225875 6.12461 0.237877 6.113 0.252717L4.37474 2.45192C4.31111 2.53417 4.36853 2.65368 4.47252 2.65368ZM11.8911 7.43853H10.9599C10.8916 7.43853 10.8358 7.4944 10.8358 7.56269V9.95279H1.58578V7.56269C1.58578 7.4944 1.52991 7.43853 1.46162 7.43853H0.530411C0.462122 7.43853 0.40625 7.4944 0.40625 7.56269V10.6357C0.40625 10.9104 0.628188 11.1323 0.902894 11.1323H11.5187C11.7934 11.1323 12.0153 10.9104 12.0153 10.6357V7.56269C12.0153 7.4944 11.9594 7.43853 11.8911 7.43853Z" fill="black" fill-opacity="0.88"/>
</svg>
