<svg width="62" height="26" viewBox="0 0 62 26" fill="none" xmlns="http://www.w3.org/2000/svg">
<path d="M0.5 25.554V0.445801H10.406C12.3022 0.445801 13.9205 0.784991 15.2609 1.46337C16.6095 2.13358 17.6352 3.08576 18.3381 4.31992C19.0492 5.54591 19.4047 6.98849 19.4047 8.64766C19.4047 10.315 19.0451 11.7494 18.3259 12.9509C17.6066 14.1442 16.5645 15.0596 15.1996 15.6971C13.8428 16.3346 12.2 16.6534 10.2711 16.6534H3.63853V12.3869H9.41293C10.4264 12.3869 11.2683 12.248 11.9385 11.9701C12.6087 11.6922 13.1072 11.2754 13.4342 10.7196C13.7693 10.1638 13.9368 9.47316 13.9368 8.64766C13.9368 7.81399 13.7693 7.11109 13.4342 6.53896C13.1072 5.96683 12.6046 5.53365 11.9262 5.23941C11.256 4.937 10.4101 4.7858 9.38841 4.7858H5.80853V25.554H0.5ZM14.0594 14.1278L20.2997 25.554H14.4395L8.33406 14.1278H14.0594Z" fill="#677DEC"/>
<path d="M23.1563 25.554V0.445801H33.0622C34.9666 0.445801 36.589 0.809511 37.9294 1.53693C39.2698 2.25618 40.2915 3.2574 40.9944 4.5406C41.7055 5.81563 42.061 7.28681 42.061 8.95416C42.061 10.6215 41.7014 12.0927 40.9821 13.3677C40.2629 14.6427 39.2208 15.6358 37.8559 16.3469C36.4991 17.0579 34.8563 17.4135 32.9274 17.4135H26.6135V13.1593H32.0692C33.0908 13.1593 33.9327 12.9836 34.5947 12.6321C35.2649 12.2725 35.7635 11.778 36.0904 11.1487C36.4255 10.5112 36.5931 9.77966 36.5931 8.95416C36.5931 8.12049 36.4255 7.39306 36.0904 6.7719C35.7635 6.14256 35.2649 5.65625 34.5947 5.31297C33.9245 4.96152 33.0745 4.7858 32.0447 4.7858H28.4648V25.554H23.1563Z" fill="#677DEC"/>
<path d="M45.5091 25.554V0.445801H50.8176V21.1773H61.5818V25.554H45.5091Z" fill="#677DEC"/>
</svg>
